<svg width="20" height="24" viewBox="0 0 20 24" fill="none" xmlns="http://www.w3.org/2000/svg">
<circle cx="10" cy="12" r="10" fill="#FF4343"/>
<path d="M7.06 18C6.11333 18 5.37333 17.8667 4.84 17.6C4.30667 17.3333 3.93333 16.9333 3.72 16.4C3.50667 15.8667 3.4 15.2067 3.4 14.42V9.96C3.4 8.68 3.68667 7.74 4.26 7.14C4.83333 6.52667 5.76667 6.22 7.06 6.22H13.08C14 6.22 14.7 6.27333 15.18 6.38C15.6733 6.47333 15.92 6.57333 15.92 6.68L15.52 8.34C15.2933 8.3 14.62 8.26 13.5 8.22C12.3933 8.16667 10.78 8.14 8.66 8.14H7.64C6.57333 8.14 6.04 8.61333 6.04 9.56V14.66C6.04 15.1133 6.15333 15.4667 6.38 15.72C6.62 15.96 7.04 16.08 7.64 16.08H8.46C9.74 16.08 10.82 16.0733 11.7 16.06C12.58 16.0333 13.3067 16.0133 13.88 16V13.28L12.68 13.3L10.06 13.5V11.54H16.5V17.16L16.7 17.58C16.7 17.6867 16.42 17.7867 15.86 17.88C15.3 17.96 14.3533 18 13.02 18H7.06Z" fill="white"/>
</svg>
