<svg width="93" height="15" viewBox="0 0 93 15" fill="none" xmlns="http://www.w3.org/2000/svg">
<path d="M3.608 15C2.52 15 1.72 14.952 1.208 14.856C0.696 14.76 0.44 14.648 0.44 14.52L1.4 12.432C1.768 12.496 2.68 12.56 4.136 12.624C5.608 12.672 7.624 12.696 10.184 12.696H10.64C11.328 12.696 11.816 12.576 12.104 12.336C12.392 12.08 12.536 11.656 12.536 11.064V10.584C12.536 10.024 12.416 9.624 12.176 9.384C11.952 9.144 11.44 9.024 10.64 9.024H5.072C3.456 9.024 2.28 8.728 1.544 8.136C0.808 7.528 0.44 6.544 0.44 5.184V4.8C0.44 4.096 0.568 3.448 0.824 2.856C1.096 2.264 1.552 1.792 2.192 1.44C2.832 1.072 3.712 0.888 4.832 0.888H11.36C12.448 0.888 13.328 0.944 14 1.056C14.672 1.168 15.008 1.288 15.008 1.416L14.528 3.432C14.112 3.384 13.168 3.336 11.696 3.288C10.224 3.224 8.248 3.192 5.768 3.192L5.504 3.168C4.768 3.168 4.272 3.32 4.016 3.624C3.76 3.912 3.624 4.28 3.608 4.728V5.136C3.608 5.664 3.752 6.064 4.04 6.336C4.344 6.592 4.84 6.72 5.528 6.72H10.856C11.88 6.72 12.752 6.824 13.472 7.032C14.192 7.24 14.744 7.624 15.128 8.184C15.512 8.728 15.704 9.536 15.704 10.608V10.992C15.704 12.192 15.392 13.16 14.768 13.896C14.16 14.632 13.096 15 11.576 15H3.608ZM23.8846 15L23.8606 3.168H17.6206V0.863999H33.3166V3.168H27.0526V15H23.8846ZM41.0287 15V9.144L34.0447 0.888H37.8847L41.4367 5.376L42.5407 6.864H42.7807L43.8847 5.376L47.4367 0.888H51.2767L50.3407 2.328L44.1967 9.24V15H41.0287ZM53.4434 15L53.6834 13.08V0.888H56.8514V12.696H66.7874L67.7474 14.736C67.7474 14.8 67.5314 14.864 67.0994 14.928C66.6674 14.976 65.9234 15 64.8674 15H53.4434ZM69.8966 15V0.888H84.8246V3.192H73.0646V6.504H82.0406V8.88H73.0646V12.696H84.9206L85.8806 14.736C85.8806 14.8 85.6646 14.864 85.2326 14.928C84.8006 14.976 84.0566 15 83.0006 15H69.8966ZM89.4956 9.96C89.3676 9.208 89.2316 8.416 89.0876 7.584C88.9436 6.736 88.8076 5.928 88.6796 5.16C88.5676 4.376 88.4716 3.704 88.3916 3.144C88.3116 2.584 88.2716 2.224 88.2716 2.064C88.2716 1.6 88.3116 1.248 88.3916 1.008C88.4876 0.767999 88.7676 0.647999 89.2316 0.647999H91.4636C91.8956 0.647999 92.1596 0.767999 92.2556 1.008C92.3676 1.232 92.4236 1.584 92.4236 2.064C92.4236 2.24 92.3836 2.608 92.3036 3.168C92.2396 3.712 92.1436 4.376 92.0156 5.16C91.9036 5.928 91.7756 6.736 91.6316 7.584C91.4876 8.416 91.3516 9.208 91.2236 9.96H89.4956ZM90.3356 15C89.7436 15 89.3116 14.88 89.0396 14.64C88.7676 14.4 88.6316 14 88.6316 13.44C88.6316 12.864 88.7596 12.464 89.0156 12.24C89.2876 12 89.7276 11.88 90.3356 11.88C90.9436 11.88 91.3836 12 91.6556 12.24C91.9276 12.464 92.0636 12.864 92.0636 13.44C92.0636 13.984 91.9276 14.384 91.6556 14.64C91.3836 14.88 90.9436 15 90.3356 15Z" fill="url(#paint0_linear_1_50)"/>
<defs>
<linearGradient id="paint0_linear_1_50" x1="-1" y1="7.00001" x2="95" y2="15" gradientUnits="userSpaceOnUse">
<stop stop-color="#0085FF"/>
<stop offset="0.458333" stop-color="#C03AFF"/>
<stop offset="1" stop-color="#FF0000"/>
</linearGradient>
</defs>
</svg>
